<svg width="155" height="26" viewBox="0 0 155 26" fill="none" xmlns="http://www.w3.org/2000/svg">
<g clip-path="url(#clip0_5678_157)">
<path d="M12.0945 0.816458C12.5528 -0.272154 14.1138 -0.272152 14.5722 0.816461L17.2772 7.24164C17.4705 7.70058 17.9074 8.01415 18.4089 8.05387L25.4302 8.60997C26.6199 8.70419 27.1022 10.1708 26.1959 10.9379L20.8464 15.4649C20.4643 15.7883 20.2973 16.2957 20.4141 16.7791L22.0484 23.548C22.3253 24.6948 21.0625 25.6013 20.044 24.9868L14.0327 21.3594C13.6033 21.1003 13.0633 21.1003 12.634 21.3594L6.62265 24.9868C5.60415 25.6013 4.34127 24.6948 4.61818 23.548L6.25256 16.7791C6.3693 16.2957 6.20243 15.7883 5.82034 15.4649L0.47075 10.9379C-0.435624 10.1708 0.0467572 8.70419 1.23639 8.60997L8.25781 8.05387C8.75933 8.01415 9.19621 7.70058 9.38942 7.24164L12.0945 0.816458Z" fill="#006B6A"/>
<path d="M44.0944 0.816458C44.5527 -0.272154 46.1137 -0.272152 46.572 0.816461L49.2771 7.24164C49.4704 7.70058 49.9073 8.01415 50.4088 8.05387L57.4301 8.60997C58.6197 8.70419 59.1021 10.1708 58.1957 10.9379L52.8462 15.4649C52.4642 15.7883 52.2972 16.2957 52.414 16.7791L54.0483 23.548C54.3252 24.6948 53.0624 25.6013 52.0439 24.9868L46.0326 21.3594C45.6032 21.1003 45.0632 21.1003 44.6338 21.3594L38.6225 24.9868C37.604 25.6013 36.3412 24.6948 36.6181 23.548L38.2524 16.7791C38.3692 16.2957 38.2023 15.7883 37.8202 15.4649L32.4706 10.9379C31.5643 10.1708 32.0466 8.70419 33.2363 8.60997L40.2577 8.05387C40.7592 8.01415 41.1961 7.70058 41.3893 7.24164L44.0944 0.816458Z" fill="#006B6A"/>
<path d="M76.0944 0.816458C76.5527 -0.272154 78.1137 -0.272152 78.572 0.816461L81.2771 7.24164C81.4704 7.70058 81.9073 8.01415 82.4088 8.05387L89.4301 8.60997C90.6197 8.70419 91.1021 10.1708 90.1957 10.9379L84.8462 15.4649C84.4642 15.7883 84.2972 16.2957 84.414 16.7791L86.0483 23.548C86.3252 24.6948 85.0624 25.6013 84.0439 24.9868L78.0326 21.3594C77.6032 21.1003 77.0632 21.1003 76.6338 21.3594L70.6225 24.9868C69.604 25.6013 68.3412 24.6948 68.6181 23.548L70.2524 16.7791C70.3692 16.2957 70.2023 15.7883 69.8202 15.4649L64.4706 10.9379C63.5643 10.1708 64.0466 8.70419 65.2363 8.60997L72.2577 8.05387C72.7592 8.01415 73.1961 7.70058 73.3893 7.24164L76.0944 0.816458Z" fill="#006B6A"/>
<path d="M108.094 0.816458C108.553 -0.272154 110.114 -0.272152 110.572 0.816461L113.277 7.24164C113.47 7.70058 113.907 8.01415 114.409 8.05387L121.43 8.60997C122.62 8.70419 123.102 10.1708 122.196 10.9379L116.846 15.4649C116.464 15.7883 116.297 16.2957 116.414 16.7791L118.048 23.548C118.325 24.6948 117.062 25.6013 116.044 24.9868L110.032 21.3594C109.603 21.1003 109.063 21.1003 108.634 21.3594L102.622 24.9868C101.604 25.6013 100.341 24.6948 100.618 23.548L102.252 16.7791C102.369 16.2957 102.202 15.7883 101.82 15.4649L96.4705 10.9379C95.5641 10.1708 96.0465 8.70419 97.2361 8.60997L104.258 8.05387C104.759 8.01415 105.196 7.70058 105.389 7.24164L108.094 0.816458Z" fill="#006B6A"/>
<path d="M140.094 0.816458C140.553 -0.272154 142.114 -0.272152 142.572 0.816461L145.277 7.24164C145.47 7.70058 145.907 8.01415 146.409 8.05387L153.43 8.60997C154.62 8.70419 155.102 10.1708 154.196 10.9379L148.846 15.4649C148.464 15.7883 148.297 16.2957 148.414 16.7791L150.048 23.548C150.325 24.6948 149.062 25.6013 148.044 24.9868L142.032 21.3594C141.603 21.1003 141.063 21.1003 140.634 21.3594L134.622 24.9868C133.604 25.6013 132.341 24.6948 132.618 23.548L134.252 16.7791C134.369 16.2957 134.202 15.7883 133.82 15.4649L128.471 10.9379C127.564 10.1708 128.047 8.70419 129.236 8.60997L136.258 8.05387C136.759 8.01415 137.196 7.70058 137.389 7.24164L140.094 0.816458Z" fill="#006B6A"/>
</g>
<defs>
<clipPath id="clip0_5678_157">
<rect width="154.666" height="25.1852" fill="white"/>
</clipPath>
</defs>
</svg>
