<svg width="23" height="23" viewBox="0 0 23 23" fill="none" xmlns="http://www.w3.org/2000/svg">
<path opacity="0.1" fill-rule="evenodd" clip-rule="evenodd" d="M0 11.1371C0 4.98625 4.98625 0 11.1371 0C17.288 0 22.2742 4.98625 22.2742 11.1371C22.2742 17.288 17.288 22.2742 11.1371 22.2742C4.98625 22.2742 0 17.288 0 11.1371Z" fill="white"/>
<path fill-rule="evenodd" clip-rule="evenodd" d="M15.7783 7.30838C16.2895 7.44865 16.692 7.86193 16.8287 8.38677C17.0769 9.33798 17.0769 11.3227 17.0769 11.3227C17.0769 11.3227 17.0769 13.3073 16.8287 14.2586C16.692 14.7835 16.2895 15.1967 15.7783 15.3371C14.852 15.5919 11.1371 15.5919 11.1371 15.5919C11.1371 15.5919 7.42225 15.5919 6.49585 15.3371C5.98469 15.1967 5.58213 14.7835 5.44552 14.2586C5.19733 13.3073 5.19733 11.3227 5.19733 11.3227C5.19733 11.3227 5.19733 9.33798 5.44552 8.38677C5.58213 7.86193 5.98469 7.44865 6.49585 7.30838C7.42225 7.05347 11.1371 7.05347 11.1371 7.05347C11.1371 7.05347 14.852 7.05347 15.7783 7.30838ZM10.0234 9.65209V13.3645L12.9933 11.5083L10.0234 9.65209Z" fill="white"/>
</svg>
