<svg width="34" height="34" viewBox="0 0 34 34" fill="none" xmlns="http://www.w3.org/2000/svg">
<g clip-path="url(#clip0_211_2332)">
<path d="M11.4856 6.08044C13.1273 6.08054 14.7294 6.58555 16.0745 7.52673C17.4197 8.46804 18.4426 9.80065 19.0051 11.3431C19.5676 12.8856 19.6424 14.5635 19.219 16.1498C18.7955 17.7361 17.8944 19.1543 16.6379 20.2113L16.2151 20.5668L16.719 20.7943C18.7885 21.7309 20.5692 23.205 21.8762 25.0629L21.8811 25.0697L21.887 25.0765C21.9885 25.2066 22.0627 25.3564 22.1047 25.516C22.1468 25.6755 22.1553 25.8421 22.1311 26.0052C22.1069 26.1684 22.0497 26.3248 21.9631 26.4652C21.8766 26.6056 21.763 26.7276 21.6282 26.8226C21.4934 26.9176 21.3402 26.9838 21.179 27.0179C21.0175 27.0521 20.8505 27.0531 20.6887 27.0209C20.5269 26.9886 20.3726 26.9238 20.2366 26.8304H20.2375C20.1015 26.737 19.985 26.6174 19.8967 26.4779L19.8928 26.4711L19.8879 26.4642L19.7063 26.2142C18.7823 24.9789 17.5912 23.966 16.22 23.2533C14.7576 22.4933 13.1337 22.0961 11.4856 22.0961C9.83734 22.0961 8.21276 22.4932 6.75024 23.2533C5.28768 24.0135 4.02943 25.1152 3.08228 26.4642L3.0813 26.4652C2.96998 26.625 2.82141 26.7552 2.64868 26.8451C2.47587 26.935 2.28392 26.9824 2.08911 26.9818H2.08716C1.83726 26.9826 1.5932 26.9045 1.38989 26.7592L1.38794 26.7582L1.29321 26.684C1.08173 26.5009 0.939148 26.2491 0.890869 25.9711C0.842619 25.693 0.892133 25.4081 1.02954 25.1644L1.09399 25.0629C2.40106 23.205 4.18171 21.7309 6.25122 20.7943L6.75513 20.5668L6.33228 20.2113C5.07585 19.1543 4.17468 17.7361 3.75122 16.1498C3.32785 14.5635 3.4026 12.8856 3.96509 11.3431C4.52762 9.80065 5.55052 8.46804 6.89575 7.52673C8.24098 6.58546 9.84375 6.08044 11.4856 6.08044ZM22.1213 6.09021H22.1233C23.766 6.08551 25.3706 6.58799 26.718 7.52771C28.0654 8.46749 29.0904 9.79996 29.6536 11.3431C30.2166 12.8862 30.2908 14.5652 29.8655 16.1517C29.44 17.7385 28.5354 19.1559 27.2756 20.2103L26.8508 20.5658L27.3557 20.7943C29.4252 21.7308 31.2059 23.205 32.5129 25.0629L32.5149 25.0648C32.6077 25.1946 32.6737 25.3419 32.7092 25.4974C32.7448 25.6531 32.7492 25.8147 32.7219 25.972C32.6946 26.1294 32.636 26.2798 32.55 26.4144C32.4641 26.549 32.3522 26.6652 32.2209 26.7562L32.217 26.7592C32.0137 26.9045 31.7697 26.9816 31.5198 26.9808C31.3247 26.9795 31.1323 26.9322 30.9592 26.8422C30.786 26.7519 30.6367 26.6216 30.5237 26.4623C29.5747 25.1162 28.3164 24.0172 26.8547 23.2582C25.4841 22.5464 23.972 22.1528 22.4309 22.1049L22.1223 22.1L22.0012 22.0941C21.7226 22.0664 21.4608 21.9432 21.261 21.7435C21.0326 21.5151 20.9036 21.2052 20.9036 20.8822C20.9036 20.5591 21.0325 20.2493 21.261 20.0209C21.4894 19.7925 21.7993 19.6644 22.1223 19.6644C23.599 19.6643 25.0156 19.0768 26.0598 18.0326C27.1039 16.9883 27.6907 15.5718 27.6907 14.0951C27.6906 12.6184 27.104 11.2018 26.0598 10.1576C25.0807 9.17847 23.7742 8.60177 22.3977 8.53357L22.1223 8.52673C21.6132 8.5258 21.106 8.59605 20.6165 8.73572L20.4954 8.76599C20.3769 8.78884 20.2554 8.79354 20.135 8.78064C19.9744 8.76343 19.8185 8.71501 19.677 8.63708C19.5356 8.55923 19.4112 8.4539 19.3108 8.32751C19.2103 8.20097 19.1358 8.0553 19.092 7.89978C19.0483 7.74427 19.0362 7.58161 19.0559 7.42126C19.0756 7.26098 19.1272 7.10643 19.2073 6.96619C19.2874 6.82589 19.3946 6.70234 19.5227 6.60388C19.6507 6.50554 19.7973 6.43327 19.9534 6.39197L19.9592 6.39099C20.6624 6.1908 21.3902 6.089 22.1213 6.09021ZM12.5715 8.63416C11.4913 8.41929 10.3713 8.52909 9.35376 8.95056C8.33638 9.37203 7.46657 10.0857 6.85474 11.0013C6.24292 11.917 5.91632 12.9939 5.91626 14.0951C5.91626 15.5718 6.50307 16.9883 7.54712 18.0326C8.59143 19.0769 10.0087 19.6644 11.4856 19.6644C12.5866 19.6643 13.6629 19.3375 14.5784 18.726C15.4941 18.1141 16.2087 17.2435 16.6301 16.226C17.0514 15.2086 17.1613 14.0891 16.9465 13.0092C16.7317 11.929 16.2018 10.9364 15.4231 10.1576C14.6443 9.37884 13.6517 8.84903 12.5715 8.63416Z" fill="#4CAF4F" stroke="#4CAF4F" stroke-width="0.696069"/>
</g>
<defs>
<clipPath id="clip0_211_2332">
<rect width="33.4113" height="33.4113" fill="white"/>
</clipPath>
</defs>
</svg>
