<svg width="23" height="23" viewBox="0 0 23 23" fill="none" xmlns="http://www.w3.org/2000/svg">
<path opacity="0.1" fill-rule="evenodd" clip-rule="evenodd" d="M0 11.1371C0 4.98625 4.98625 0 11.1371 0C17.288 0 22.2742 4.98625 22.2742 11.1371C22.2742 17.288 17.288 22.2742 11.1371 22.2742C4.98625 22.2742 0 17.288 0 11.1371Z" fill="white"/>
<path fill-rule="evenodd" clip-rule="evenodd" d="M11.1377 5.19727C9.52451 5.19727 9.32206 5.20432 8.68848 5.23315C8.05613 5.26211 7.6245 5.36222 7.24682 5.50911C6.85616 5.66082 6.52476 5.86377 6.1946 6.19405C5.8642 6.5242 5.66125 6.8556 5.50905 7.24614C5.36179 7.62394 5.26155 8.0557 5.23309 8.6878C5.20475 9.32138 5.19733 9.52395 5.19733 11.1371C5.19733 12.7503 5.2045 12.9521 5.23321 13.5857C5.26229 14.218 5.36241 14.6497 5.50917 15.0274C5.66101 15.418 5.86395 15.7494 6.19423 16.0796C6.52427 16.41 6.85566 16.6134 7.24608 16.7651C7.624 16.912 8.05576 17.0121 8.68798 17.0411C9.32157 17.0699 9.52389 17.077 11.1369 17.077C12.7502 17.077 12.9521 17.0699 13.5856 17.0411C14.218 17.0121 14.6501 16.912 15.028 16.7651C15.4186 16.6134 15.7495 16.41 16.0795 16.0796C16.4099 15.7494 16.6129 15.418 16.7651 15.0275C16.9111 14.6497 17.0113 14.2179 17.041 13.5858C17.0695 12.9522 17.0769 12.7503 17.0769 11.1371C17.0769 9.52395 17.0695 9.3215 17.041 8.68792C17.0113 8.05557 16.9111 7.62394 16.7651 7.24627C16.6129 6.8556 16.4099 6.5242 16.0795 6.19405C15.7491 5.86364 15.4187 5.6607 15.0277 5.50911C14.649 5.36222 14.2171 5.26211 13.5848 5.23315C12.9512 5.20432 12.7495 5.19727 11.1358 5.19727H11.1377ZM10.6048 6.26766C10.7629 6.26741 10.9394 6.26766 11.1377 6.26766C12.7236 6.26766 12.9116 6.27335 13.5378 6.30181C14.117 6.3283 14.4313 6.42507 14.6407 6.50637C14.9179 6.61403 15.1155 6.74272 15.3233 6.95062C15.5312 7.15851 15.6599 7.35651 15.7678 7.6337C15.8491 7.84284 15.946 8.15715 15.9723 8.73629C16.0008 9.36245 16.007 9.55054 16.007 11.1357C16.007 12.7209 16.0008 12.909 15.9723 13.5352C15.9458 14.1143 15.8491 14.4286 15.7678 14.6378C15.6601 14.915 15.5312 15.1124 15.3233 15.3201C15.1154 15.528 14.918 15.6567 14.6407 15.7644C14.4315 15.846 14.117 15.9426 13.5378 15.9691C12.9117 15.9975 12.7236 16.0037 11.1377 16.0037C9.55159 16.0037 9.36361 15.9975 8.73745 15.9691C8.15832 15.9423 7.844 15.8456 7.6345 15.7643C7.3573 15.6566 7.15931 15.5279 6.95141 15.32C6.74352 15.1121 6.61482 14.9146 6.50692 14.6373C6.42561 14.4282 6.32872 14.1138 6.30236 13.5347C6.2739 12.9085 6.26821 12.7204 6.26821 11.1343C6.26821 9.54807 6.2739 9.36096 6.30236 8.7348C6.32884 8.15567 6.42561 7.84135 6.50692 7.63197C6.61458 7.35478 6.74352 7.15678 6.95141 6.94889C7.15931 6.74099 7.3573 6.6123 7.6345 6.50439C7.84388 6.42272 8.15832 6.32619 8.73745 6.29959C9.28541 6.27484 9.49776 6.26741 10.6048 6.26618V6.26766ZM14.3083 7.25393C13.9148 7.25393 13.5955 7.57282 13.5955 7.96646C13.5955 8.35998 13.9148 8.67924 14.3083 8.67924C14.7018 8.67924 15.0211 8.35998 15.0211 7.96646C15.0211 7.57295 14.7018 7.25393 14.3083 7.25393ZM11.1377 8.08674C9.45312 8.08674 8.08732 9.45254 8.08732 11.1371C8.08732 12.8217 9.45312 14.1868 11.1377 14.1868C12.8223 14.1868 14.1876 12.8217 14.1876 11.1371C14.1876 9.45254 12.8223 8.08674 11.1377 8.08674ZM11.1377 9.15715C12.2311 9.15715 13.1176 10.0436 13.1176 11.1371C13.1176 12.2305 12.2311 13.1171 11.1377 13.1171C10.0441 13.1171 9.15771 12.2305 9.15771 11.1371C9.15771 10.0436 10.0441 9.15715 11.1377 9.15715Z" fill="white"/>
</svg>
